<svg xmlns="http://www.w3.org/2000/svg" viewBox="0 0 40 28" width="40" height="28">
  <!-- Propaganda sign — Stage 3-4 compliance messaging -->
  <!-- Wall top face -->
  <polygon points="4,10 20,2 36,10 20,18" fill="#888888"/>
  <!-- Wall left face -->
  <polygon points="4,10 4,24 20,32 20,18" fill="#666666"/>
  <!-- Wall right -->
  <polygon points="20,18 36,10 36,24 20,32" fill="#444444"/>
  <!-- Red propaganda board -->
  <polygon points="5,11 18,5 18,25 5,31" fill="#cc2222"/>
  <polygon points="6,12 17,6 17,24 6,30" fill="#bb1111"/>
  <!-- White bold text lines (propaganda style) -->
  <line x1="7" y1="10" x2="16" y2="6" stroke="white" stroke-width="2"/>
  <line x1="7" y1="14" x2="16" y2="10" stroke="white" stroke-width="2"/>
  <line x1="7" y1="18" x2="14" y2="14" stroke="white" stroke-width="1.5"/>
  <!-- Star emblem -->
  <polygon points="10,22 11,20 12,22 10.5,21 11.5,21" fill="white" opacity="0.9"/>
  <!-- Loudspeaker icon hint -->
  <polygon points="13,21 15,20 15,24 13,23" fill="white" opacity="0.7"/>
  <polygon points="15,19 17,18 17,25 15,24" fill="white" opacity="0.5"/>
</svg>
